<svg x="0" y="0" width="300" height="300" version="1.1" xmlns="http://www.w3.org/2000/svg" xmlns:xlink="http://www.w3.org/1999/xlink"><g data-paper-data="{&quot;description&quot;:&quot;Logo for Racker volleyball league\n=================================\n\nThis logo was generated by MarkMaker and is composed of elements designed by others.\n\nThe font is Averia Libre Light designed by Dan Sayers and released under the OFL license via Google Fonts: https://www.google.com/fonts/specimen/Averia Libre. The font includes this copyright statement: Copyright (c) 2011, Dan Sayers (i@iotic.com), with Reserved Font Name 'Averia' and 'Averia Libre'.\n\nThe symbol is 'group' designed by Lucian Dinu and released into the public domain at the Noun Project: https://thenounproject.com/term/group/36121.\n\nMarkMaker uses semantic data from the Princeton University WordNet database http://wordnet.princeton.edu and font descriptions from Google Fonts https://www.google.com/fonts.\n\nThis design is inspired by designs that past users of MarkMaker have liked. As a result, it may be visually similar to past or future designs generated by the system. There is no guarantee that it is unique, original, or suitable in any way for use as a logo.\n\n&quot;}" fill="none" stroke="none" stroke-width="none" stroke-linecap="butt" stroke-linejoin="miter" stroke-miterlimit="none" stroke-dasharray="" stroke-dashoffset="0" font-family="none" font-weight="none" font-size="none" text-anchor="start" mix-blend-mode="normal"><path d="M63.64628,270l0,-240l172.70745,0l0,240z" fill="none" stroke="#1f3f38" stroke-width="2.1" stroke-miterlimit="10" font-family="sans-serif" font-weight="normal" font-size="12"></path><g data-paper-data="{&quot;elementType&quot;:&quot;logo&quot;}" fill="#1f3f38" stroke-width="1" stroke-miterlimit="10" font-family="sans-serif" font-weight="normal" font-size="12"><g data-paper-data="{&quot;elementType&quot;:&quot;text&quot;}"><g data-paper-data="{&quot;baseline&quot;:70.068359375}"><g data-paper-data="{&quot;baselineProportion&quot;:0.9930795847750865,&quot;fontSize&quot;:100,&quot;baseline&quot;:70.068359375,&quot;elementType&quot;:&quot;word&quot;}"><path d="M83.82835,213.41697c0,-0.78899 0.67519,-1.18348 2.02557,-1.18348c1.35038,0 2.43524,0.38691 3.25457,1.16072c0.30346,0.28828 0.55002,0.43243 0.73968,0.43243c0.18966,0 0.85347,-0.3376 1.99144,-1.01279c1.13796,-0.67519 2.16213,-1.01279 3.0725,-1.01279l0.34139,0c0.71312,0 1.339,0.18966 1.87764,0.56898c0.53864,0.37932 0.80795,0.88761 0.80795,1.52487c0,1.18348 -0.55381,1.77522 -1.66143,1.77522l-2.02557,-0.20483c-0.80416,0 -1.55901,0.26173 -2.26455,0.78519c-0.70554,0.52346 -1.27831,1.24038 -1.71832,2.15075c-0.69795,1.45659 -1.04693,3.81597 -1.04693,7.07813c0,0.94072 0.15931,2.04833 0.47794,3.32285c0.31863,1.27452 0.47794,1.93454 0.47794,1.98006c0,0.66761 -0.31484,1.25935 -0.94451,1.77522c-0.62967,0.51588 -1.41487,0.77381 -2.35558,0.77381l-0.77381,0c-0.71312,0 -1.30107,-0.20863 -1.76384,-0.62588c-0.46277,-0.41725 -0.69416,-0.86865 -0.69416,-1.35418l0,-0.34139c0,-0.25794 0.12518,-0.71312 0.37553,-1.36556c0.25035,-0.65243 0.40587,-1.33142 0.46656,-2.03695c0.06069,-0.70554 0.09104,-2.31007 0.09104,-4.81358l-0.04552,-2.50352l-0.06828,-2.43524c0,-1.65384 -0.10621,-2.78801 -0.31863,-3.40251c-0.21242,-0.6145 -0.31863,-0.95968 -0.31863,-1.03555z" data-paper-data="{&quot;elementType&quot;:&quot;letter&quot;,&quot;baseline&quot;:46.875,&quot;baselineProportion&quot;:1.014799154334038,&quot;fontSize&quot;:100}"></path><path d="M105.39466,216.17084c-0.92554,0 -1.38832,-0.51588 -1.38832,-1.54763c0,-1.03175 0.62967,-1.85867 1.88902,-2.48076c1.7297,-0.86485 3.53527,-1.29728 5.4167,-1.29728l0.54622,0c4.70358,0 7.35883,2.0104 7.96574,6.03121c0.15173,1.00141 0.22759,3.00802 0.22759,6.01983c0,3.01181 0.04931,4.84772 0.14794,5.50774c0.09862,0.66002 0.36415,1.31624 0.79657,1.96868c0.43243,0.65243 0.64864,1.14176 0.64864,1.46797c0,0.32622 -0.20104,0.64864 -0.60312,0.96727c-0.40208,0.31863 -0.92554,0.47794 -1.57039,0.47794c-0.64485,0 -1.42625,-0.17449 -2.3442,-0.52346c-0.91796,-0.34898 -1.53246,-0.52346 -1.8435,-0.52346c-0.31104,0 -0.84968,0.14414 -1.61591,0.43243c-0.76623,0.28828 -1.48694,0.54243 -2.16213,0.76244c-0.67519,0.22001 -1.52866,0.33001 -2.56042,0.33001c-1.88143,0 -3.39492,-0.53484 -4.54047,-1.60453c-1.14555,-1.06969 -1.71832,-2.42386 -1.71832,-4.06253l0,-0.52346c0,-3.45941 2.29869,-5.6974 6.89606,-6.71398c0.28828,-0.06069 1.05451,-0.18966 2.29869,-0.38691c1.24417,-0.19725 2.10903,-0.39449 2.59456,-0.59174c0.8952,-0.36415 1.3428,-1.14176 1.3428,-2.33282c0,-1.19107 -0.37173,-2.1204 -1.1152,-2.78801c-0.74347,-0.66761 -1.65763,-1.00141 -2.74249,-1.00141c-1.08486,0 -2.30248,0.40208 -3.65286,1.20624c-1.35038,0.80416 -2.32144,1.20624 -2.91319,1.20624z M110.42446,231.07815l0.75106,0c1.47177,0 2.74628,-0.60691 3.82356,-1.82074c0.68278,-0.77381 1.02417,-2.07868 1.02417,-3.91459l0.02276,-0.29587l0,-1.09244c-0.03035,-0.18207 -0.04552,-0.32622 -0.04552,-0.43243c0,-0.66761 -0.37932,-1.00141 -1.13796,-1.00141l-0.29587,-0.04552l-0.63726,0l-0.15931,0.02276l-0.79657,0.04552l-0.6145,0.04552c-1.63867,0 -2.9625,0.3907 -3.97149,1.1721c-1.00899,0.7814 -1.51349,1.80936 -1.51349,3.08388l0,0.66002c0.03035,0.21242 0.04552,0.37173 0.04552,0.47794c0,0.75864 0.32622,1.46418 0.97865,2.11661c0.65243,0.65243 1.49453,0.97865 2.52628,0.97865" data-paper-data="{&quot;elementType&quot;:&quot;letter&quot;,&quot;baseline&quot;:48.92578125,&quot;baselineProportion&quot;:0.9950347567030785,&quot;fontSize&quot;:100}"></path><path d="M137.93094,233.78651l-0.5007,0c-3.11043,0 -5.56085,-1.06969 -7.35124,-3.20906c-1.51728,-1.77522 -2.27593,-4.36219 -2.27593,-7.76091c0,-3.38354 0.87244,-6.10707 2.61732,-8.17058c2.00282,-2.38214 4.5822,-3.5732 7.73815,-3.5732l0.5007,0c1.80557,0 3.30389,0.36036 4.49495,1.08107c1.19107,0.72071 1.7866,1.63487 1.7866,2.74249c0,1.10762 -0.47794,1.66143 -1.43383,1.66143c-0.31863,0 -1.0621,-0.37553 -2.23041,-1.12658c-1.16831,-0.75106 -2.29869,-1.12658 -3.39113,-1.12658c-1.7297,0 -3.11043,0.72071 -4.14219,2.16213c-1.03175,1.44142 -1.54763,3.45941 -1.54763,6.05396c0,2.59456 0.57657,4.55565 1.7297,5.88327c1.15314,1.32762 2.77663,1.99144 4.87048,1.99144c1.03175,0 2.25696,-0.26932 3.67562,-0.80795c1.41866,-0.53864 2.2342,-0.80795 2.44662,-0.80795c0.5007,0 0.75106,0.27311 0.75106,0.81933c0,0.97106 -0.84209,1.91178 -2.52628,2.82215c-1.68419,0.91037 -3.42148,1.36556 -5.21187,1.36556z" data-paper-data="{&quot;elementType&quot;:&quot;letter&quot;,&quot;baseline&quot;:48.4375,&quot;baselineProportion&quot;:0.9939879759519038,&quot;fontSize&quot;:100}"></path><path d="M153.944,232.76234c-1.04693,0 -1.57039,-0.64485 -1.57039,-1.93454l0.04552,-0.5007c0.03035,-0.34898 0.0531,-0.7283 0.06828,-1.13796l0.13656,-2.68559c0.09104,-1.88143 0.13656,-3.60355 0.13656,-5.16635l0.06828,-3.86907l0.04552,-1.54763l0,-1.52487l0.02276,-1.54763c0,-0.75864 0,-1.51728 0,-2.27593l-0.04552,-4.50633c0,-0.63726 -0.09104,-1.29728 -0.27311,-1.98006l-0.43243,-1.61591c0,-0.98623 0.66002,-1.47935 1.98006,-1.47935l0.6145,0c1.25935,0 2.06351,0.6145 2.41248,1.8435c0.15173,0.53105 0.22759,2.77284 0.22759,6.72536c0,3.95253 0.07207,6.44466 0.21621,7.47642c0.14414,1.03175 0.47036,1.54763 0.97865,1.54763c0.50829,0 1.87005,-1.16831 4.08529,-3.50493c2.21524,-2.33662 3.70217,-3.50493 4.46082,-3.50493c1.66901,0 2.50352,0.34139 2.50352,1.02417c0,0.24277 -0.97106,1.41107 -2.91319,3.50493c-1.94212,2.09385 -2.91319,3.687 -2.91319,4.77945c0,0.5614 0.78519,1.96488 2.35558,4.21046c1.57039,2.24558 2.79939,3.89563 3.687,4.95014c0.88761,1.05451 1.33142,1.63487 1.33142,1.74108c0,0.77381 -0.58415,1.16072 -1.75246,1.16072c-1.16831,0 -2.13178,-0.32622 -2.89043,-0.97865c-0.21242,-0.19725 -1.21383,-1.66143 -3.00422,-4.39254c-1.7904,-2.73111 -3.08767,-4.09667 -3.89183,-4.09667c-0.47036,0 -0.90278,0.40587 -1.29728,1.21762c-0.39449,0.81175 -0.59174,1.81695 -0.59174,3.0156l0.15931,2.3442c0,1.80557 -1.32004,2.70835 -3.96011,2.70835z" data-paper-data="{&quot;elementType&quot;:&quot;letter&quot;,&quot;baseline&quot;:70.068359375,&quot;baselineProportion&quot;:1.022079772079772,&quot;fontSize&quot;:100}"></path><path d="M186.45752,233.87754l-0.5007,0c-2.98905,0 -5.38636,-1.02417 -7.19193,-3.0725c-0.74347,-0.84968 -1.34659,-1.96868 -1.80936,-3.35699c-0.46277,-1.38832 -0.69416,-2.80318 -0.69416,-4.2446l0,-0.5007c0,-0.04552 0,-0.09104 0,-0.13656c0,-1.69936 0.29587,-3.25457 0.88761,-4.66565c1.27452,-3.11043 3.30009,-5.15118 6.07672,-6.12224c1.18348,-0.42484 2.47317,-0.63726 3.86907,-0.63726c3.36837,0 5.68982,1.37314 6.96433,4.11943c0.45519,0.98623 0.68278,1.98764 0.68278,3.00422l0,0.47794c0,1.50211 -0.60691,2.51869 -1.82074,3.04974c-0.84968,0.37932 -2.70077,0.77761 -5.55326,1.19486c-2.85249,0.41725 -4.43047,0.66381 -4.73393,0.73968c-1.07727,0.28828 -1.61591,0.82692 -1.61591,1.61591c0,1.60832 0.73588,2.95112 2.20765,4.02839c0.98623,0.7283 2.37455,1.09244 4.16495,1.09244c0.78899,0 2.03316,-0.24656 3.73252,-0.73968c1.69936,-0.49312 2.6249,-0.73968 2.77663,-0.73968c0.42484,0 0.63726,0.40967 0.63726,1.229c0,0.81933 -0.91037,1.63487 -2.73111,2.44662c-1.82074,0.81175 -3.60355,1.21762 -5.34843,1.21762z M190.85006,218.40124l0,-0.56898c0,-0.95589 -0.3376,-1.87005 -1.01279,-2.74249c-0.67519,-0.87244 -1.61211,-1.30866 -2.81077,-1.30866l-0.75106,0c-0.21242,0.03035 -0.36415,0.04552 -0.45519,0.04552c-1.30486,0 -2.458,0.64485 -3.45941,1.93454c-1.00141,1.28969 -1.50211,2.60973 -1.50211,3.96011l0,0.13656c0,0.66761 0.58415,1.00141 1.75246,1.00141l0.13656,-0.02276l2.18489,-0.15931c0.74347,-0.10621 1.28969,-0.15931 1.63867,-0.15931l0.7283,-0.09104c1.13796,0 2.11661,-0.22759 2.93595,-0.68278c0.40967,-0.22759 0.6145,-0.67519 0.6145,-1.3428" data-paper-data="{&quot;elementType&quot;:&quot;letter&quot;,&quot;baseline&quot;:48.291015625,&quot;baselineProportion&quot;:0.98998998998999,&quot;fontSize&quot;:100}"></path><path d="M202.24298,213.41697c0,-0.78899 0.67519,-1.18348 2.02557,-1.18348c1.35038,0 2.43524,0.38691 3.25457,1.16072c0.30346,0.28828 0.55002,0.43243 0.73968,0.43243c0.18966,0 0.85347,-0.3376 1.99144,-1.01279c1.13796,-0.67519 2.16213,-1.01279 3.0725,-1.01279l0.34139,0c0.71312,0 1.339,0.18966 1.87764,0.56898c0.53864,0.37932 0.80795,0.88761 0.80795,1.52487c0,1.18348 -0.55381,1.77522 -1.66143,1.77522l-2.02557,-0.20483c-0.80416,0 -1.55901,0.26173 -2.26455,0.78519c-0.70554,0.52346 -1.27831,1.24038 -1.71832,2.15075c-0.69795,1.45659 -1.04693,3.81597 -1.04693,7.07813c0,0.94072 0.15931,2.04833 0.47794,3.32285c0.31863,1.27452 0.47794,1.93454 0.47794,1.98006c0,0.66761 -0.31484,1.25935 -0.94451,1.77522c-0.62967,0.51588 -1.41487,0.77381 -2.35558,0.77381l-0.77381,0c-0.71312,0 -1.30107,-0.20863 -1.76384,-0.62588c-0.46277,-0.41725 -0.69416,-0.86865 -0.69416,-1.35418l0,-0.34139c0,-0.25794 0.12518,-0.71312 0.37553,-1.36556c0.25035,-0.65243 0.40587,-1.33142 0.46656,-2.03695c0.06069,-0.70554 0.09104,-2.31007 0.09104,-4.81358l-0.04552,-2.50352l-0.06828,-2.43524c0,-1.65384 -0.10621,-2.78801 -0.31863,-3.40251c-0.21242,-0.6145 -0.31863,-0.95968 -0.31863,-1.03555z" data-paper-data="{&quot;elementType&quot;:&quot;letter&quot;,&quot;baseline&quot;:46.875,&quot;baselineProportion&quot;:1.014799154334038,&quot;fontSize&quot;:100}"></path></g></g><g data-paper-data="{&quot;baseline&quot;:26.205387622099295,&quot;elementType&quot;:&quot;row&quot;}"><g data-paper-data="{&quot;baselineProportion&quot;:0.785097192224622,&quot;fontSize&quot;:100,&quot;baseline&quot;:70.99609375,&quot;elementType&quot;:&quot;word&quot;}"><path d="M90.29121,237.93663l0.32763,0c0.39763,0 0.59645,0.18762 0.59645,0.56285c0,0.22962 -0.10781,0.51804 -0.32343,0.86527c-0.21562,0.34723 -0.65385,1.42812 -1.31471,3.24266c-0.66085,1.81455 -1.17329,2.90383 -1.53732,3.26786c-0.17361,0.17361 -0.43404,0.26042 -0.78126,0.26042c-0.34723,0 -0.68606,-0.34163 -1.01648,-1.02488c-0.17361,-0.35283 -0.55304,-1.31611 -1.13829,-2.88983c-0.58525,-1.57373 -0.97448,-2.5174 -1.16769,-2.83103c-0.19322,-0.31363 -0.28982,-0.56845 -0.28982,-0.76446l0,-0.13441c0,-0.19602 0.0602,-0.33603 0.18061,-0.42003c0.12041,-0.08401 0.33743,-0.12601 0.65105,-0.12601c0.65525,0 1.08369,0.24082 1.2853,0.72246c0.0336,0.08401 0.06721,0.25762 0.10081,0.52084c0.0336,0.26322 0.12741,0.64965 0.28142,1.15929c0.15401,0.50964 0.26182,0.87927 0.32343,1.10889c0.50964,1.83135 0.87647,2.74702 1.10049,2.74702c0.14001,0 0.54044,-0.96888 1.2013,-2.90663c0.27442,-0.80647 0.44524,-1.33571 0.51244,-1.58773c0.06721,-0.25202 0.11061,-0.51104 0.13021,-0.77706c0.0196,-0.26602 0.0434,-0.43824 0.07141,-0.51664c0.11201,-0.31923 0.38083,-0.47884 0.80647,-0.47884z" data-paper-data="{&quot;elementType&quot;:&quot;letter&quot;,&quot;baseline&quot;:47.8515625,&quot;baselineProportion&quot;:1.0040983606557377,&quot;fontSize&quot;:100}"></path><path d="M92.96753,242.41419l0,-0.54604c0,-0.0168 0,-0.0308 0,-0.042c0,-0.52084 0.09241,-1.03888 0.27722,-1.55413c0.39203,-1.09769 1.03608,-1.82855 1.93216,-2.19258c0.48164,-0.19602 0.97728,-0.29402 1.48692,-0.29402l0.13441,0c0.53764,0 1.04168,0.10641 1.51212,0.31923c1.36651,0.61045 2.04977,1.90135 2.04977,3.87271l-0.0084,0.13441c0,0.58805 -0.08961,1.13409 -0.26882,1.63813c-0.35283,1.01928 -0.97448,1.73894 -1.86495,2.15897c-0.54884,0.26322 -1.09769,0.39483 -1.64653,0.39483l-0.26882,0c-0.95768,0 -1.75294,-0.33883 -2.38579,-1.01648c-0.29682,-0.31363 -0.52924,-0.73926 -0.69726,-1.2769c-0.16801,-0.53764 -0.25202,-1.06969 -0.25202,-1.59613z M94.49646,241.96895l0,0.38643c0,0.92968 0.19182,1.65073 0.57545,2.16317c0.38363,0.51244 0.86387,0.76866 1.44072,0.76866l0.08401,0c0.59365,0 1.07949,-0.27442 1.45752,-0.82327c0.37803,-0.54884 0.56705,-1.30491 0.56705,-2.26818l0,-0.48724c0,-0.81767 -0.16661,-1.51072 -0.49984,-2.07917c-0.33323,-0.56845 -0.77706,-0.85267 -1.33151,-0.85267l-0.26042,0c-0.57125,0 -1.05289,0.28562 -1.44492,0.85687c-0.39203,0.57125 -0.58805,1.34971 -0.58805,2.33539" data-paper-data="{&quot;elementType&quot;:&quot;letter&quot;,&quot;baseline&quot;:48.73046875,&quot;baselineProportion&quot;:0.9842209072978304,&quot;fontSize&quot;:100}"></path><path d="M105.73307,245.29562l0,0.10921c0,0.11761 -0.09241,0.26882 -0.27722,0.45364c-0.18481,0.18481 -0.45924,0.27722 -0.82327,0.27722l-0.29402,0c-0.39763,0 -0.70286,-0.07841 -0.91567,-0.23522c-0.21282,-0.15681 -0.31923,-0.36403 -0.31923,-0.62165c0,-0.07841 0.0154,-0.19462 0.0462,-0.34863c0.0308,-0.15401 0.0462,-0.41023 0.0462,-0.76866l0,-1.17609l0.06721,-2.80583c0,-0.10641 0,-0.21282 0,-0.31923l0.0084,-0.31083c0,-0.10641 0,-0.21282 0,-0.31923l0.0084,-0.15961c0,-0.10641 0,-0.21282 0,-0.31923l0.0084,-0.31083l0,-0.47884l0.0084,-0.31083l0,-0.89047c0,-0.73366 -0.049,-1.2629 -0.14701,-1.58773c-0.09801,-0.32483 -0.14701,-0.49564 -0.14701,-0.51244l0,-0.10921c0,-0.39763 0.30242,-0.59645 0.90727,-0.59645c0.60485,0 0.94648,0.18762 1.02488,0.56285c0.0056,0.028 0.0084,0.56845 0.0084,1.62133l-0.0336,1.09209l0,0.31083l-0.0504,2.04977l0,1.2433l0.042,1.04168c0,1.31051 0.17641,2.25698 0.52924,2.83943c0.20162,0.33043 0.30242,0.52364 0.30242,0.57965z" data-paper-data="{&quot;elementType&quot;:&quot;letter&quot;,&quot;baseline&quot;:70.99609375,&quot;baselineProportion&quot;:1.0027586206896553,&quot;fontSize&quot;:100}"></path><path d="M111.17321,245.29562l0,0.10921c0,0.11761 -0.09241,0.26882 -0.27722,0.45364c-0.18481,0.18481 -0.45924,0.27722 -0.82327,0.27722l-0.29402,0c-0.39763,0 -0.70286,-0.07841 -0.91567,-0.23522c-0.21282,-0.15681 -0.31923,-0.36403 -0.31923,-0.62165c0,-0.07841 0.0154,-0.19462 0.0462,-0.34863c0.0308,-0.15401 0.0462,-0.41023 0.0462,-0.76866l0,-1.17609l0.06721,-2.80583c0,-0.10641 0,-0.21282 0,-0.31923l0.0084,-0.31083c0,-0.10641 0,-0.21282 0,-0.31923l0.0084,-0.15961c0,-0.10641 0,-0.21282 0,-0.31923l0.0084,-0.31083l0,-0.47884l0.0084,-0.31083l0,-0.89047c0,-0.73366 -0.049,-1.2629 -0.14701,-1.58773c-0.09801,-0.32483 -0.14701,-0.49564 -0.14701,-0.51244l0,-0.10921c0,-0.39763 0.30242,-0.59645 0.90727,-0.59645c0.60485,0 0.94648,0.18762 1.02488,0.56285c0.0056,0.028 0.0084,0.56845 0.0084,1.62133l-0.0336,1.09209l0,0.31083l-0.0504,2.04977l0,1.2433l0.042,1.04168c0,1.31051 0.17641,2.25698 0.52924,2.83943c0.20162,0.33043 0.30242,0.52364 0.30242,0.57965z" data-paper-data="{&quot;elementType&quot;:&quot;letter&quot;,&quot;baseline&quot;:70.99609375,&quot;baselineProportion&quot;:1.0027586206896553,&quot;fontSize&quot;:100}"></path><path d="M117.03339,246.2533l-0.18481,0c-1.10329,0 -1.98816,-0.37803 -2.65461,-1.13409c-0.27442,-0.31363 -0.49704,-0.72666 -0.66785,-1.2391c-0.17081,-0.51244 -0.25622,-1.03468 -0.25622,-1.56673l0,-0.18481c0,-0.0168 0,-0.0336 0,-0.0504c0,-0.62725 0.10921,-1.2013 0.32763,-1.72214c0.47044,-1.14809 1.2181,-1.90135 2.24298,-2.25978c0.43684,-0.15681 0.91287,-0.23522 1.42812,-0.23522c1.2433,0 2.10017,0.50684 2.57061,1.52052c0.16801,0.36403 0.25202,0.73366 0.25202,1.10889l0,0.17641c0,0.55444 -0.22402,0.92968 -0.67205,1.12569c-0.31363,0.14001 -0.99688,0.28702 -2.04977,0.44104c-1.05289,0.15401 -1.63533,0.24502 -1.74734,0.27302c-0.39763,0.10641 -0.59645,0.30522 -0.59645,0.59645c0,0.59365 0.27162,1.08929 0.81487,1.48692c0.36403,0.26882 0.87647,0.40323 1.53732,0.40323c0.29122,0 0.75046,-0.09101 1.37771,-0.27302c0.62725,-0.18201 0.96888,-0.27302 1.02488,-0.27302c0.15681,0 0.23522,0.15121 0.23522,0.45364c0,0.30242 -0.33603,0.60345 -1.00808,0.90307c-0.67205,0.29962 -1.33011,0.44944 -1.97416,0.44944z M118.65472,240.54084l0,-0.21002c0,-0.35283 -0.12461,-0.69026 -0.37383,-1.01228c-0.24922,-0.32203 -0.59505,-0.48304 -1.03748,-0.48304l-0.27722,0c-0.07841,0.0112 -0.13441,0.0168 -0.16801,0.0168c-0.48164,0 -0.90727,0.23802 -1.2769,0.71406c-0.36963,0.47604 -0.55444,0.96328 -0.55444,1.46172l0,0.0504c0,0.24642 0.21562,0.36963 0.64685,0.36963l0.0504,-0.0084l0.80647,-0.0588c0.27442,-0.0392 0.47604,-0.0588 0.60485,-0.0588l0.26882,-0.0336c0.42003,0 0.78126,-0.08401 1.08369,-0.25202c0.15121,-0.08401 0.22682,-0.24922 0.22682,-0.49564" data-paper-data="{&quot;elementType&quot;:&quot;letter&quot;,&quot;baseline&quot;:48.291015625,&quot;baselineProportion&quot;:0.98998998998999,&quot;fontSize&quot;:100}"></path><path d="M122.48194,238.8775c0,-0.16241 0.07281,-0.30942 0.21842,-0.44104c0.14561,-0.13161 0.40183,-0.19742 0.76866,-0.19742c0.36683,0 0.62865,0.14281 0.78546,0.42843c0.0504,0.09521 0.09381,0.27162 0.13021,0.52924c0.0364,0.25762 0.20582,0.91007 0.50824,1.95736c0.54324,1.87055 0.91847,2.80583 1.12569,2.80583c0.35843,-0.0056 0.80647,-0.81487 1.34411,-2.4278c0.35283,-1.05289 0.52924,-2.00496 0.52924,-2.85623c0,-0.25762 0.07981,-0.44104 0.23942,-0.55024c0.15961,-0.10921 0.34023,-0.16381 0.54184,-0.16381l0.20162,0c0.48164,0 0.72246,0.20442 0.72246,0.61325l0,0.18481c0,0.0616 -0.09241,0.34583 -0.27722,0.85267c-0.18481,0.50684 -0.37243,1.10469 -0.56285,1.79354c-0.72806,2.64901 -1.32171,4.42156 -1.78094,5.31763c-0.94648,1.85375 -1.89015,2.78342 -2.83103,2.78903l-0.15121,0c-0.40883,0 -0.61325,-0.12881 -0.61325,-0.38643c0,-0.25762 0.22262,-0.45364 0.66785,-0.58805c0.44524,-0.13441 0.78546,-0.34723 1.02068,-0.63845c0.39763,-0.49844 0.59645,-1.08369 0.59645,-1.75574c0,-0.0112 -0.53064,-1.09909 -1.59193,-3.26366c-1.06129,-2.16457 -1.59193,-3.44008 -1.59193,-3.82651l0,-0.17641z" data-paper-data="{&quot;elementType&quot;:&quot;letter&quot;,&quot;baseline&quot;:47.705078125,&quot;baselineProportion&quot;:0.7105454545454546,&quot;fontSize&quot;:100}"></path><path d="M133.0297,245.82486c-0.39763,0 -0.63285,-0.27722 -0.70566,-0.83167c-0.0056,-0.0336 -0.0084,-0.45924 -0.0084,-1.2769l0,-1.52052l0.0084,-0.19322l0,-0.97448l0.0084,-0.38643l0,-0.97448l0.0084,-0.39483l0,-0.39483l0.0168,-0.78126l0,-0.78126c0,-0.78406 -0.0154,-1.2783 -0.0462,-1.48272c-0.0308,-0.20442 -0.08401,-0.42143 -0.15961,-0.65105c-0.07561,-0.22962 -0.11341,-0.41723 -0.11341,-0.56285c0,-0.35843 0.24362,-0.53764 0.73086,-0.53764c0.48724,0 0.79526,0.13161 0.92407,0.39483c0.12881,0.26322 0.19322,0.85687 0.19322,1.78094c0,0.92407 0.028,1.50932 0.08401,1.75574c0.056,0.24642 0.17921,0.36963 0.36963,0.36963c0.14001,0 0.40603,-0.0518 0.79806,-0.15541c0.39203,-0.10361 0.77286,-0.15541 1.14249,-0.15541c0.88487,0 1.61293,0.35843 2.18418,1.07529c0.29122,0.36403 0.51384,0.80366 0.66785,1.31891c0.15401,0.51524 0.23102,1.01368 0.23102,1.49532l0,0.39483c0,0.54884 -0.09521,1.05849 -0.28562,1.52892c-0.38643,0.95208 -0.97168,1.60173 -1.75574,1.94896c-0.45924,0.20722 -0.93808,0.31083 -1.43652,0.31083l-0.18481,0c-0.34163,0 -0.72106,-0.0574 -1.13829,-0.17221c-0.41723,-0.11481 -0.79666,-0.17221 -1.13829,-0.17221c-0.13441,0.0168 -0.26602,0.0252 -0.39483,0.0252z M135.36508,245.15281l0.25202,0c0.58245,0 1.07949,-0.27442 1.49112,-0.82327c0.41163,-0.54884 0.61745,-1.36371 0.61745,-2.4446l0,-0.29402c0,-0.83447 -0.15541,-1.51492 -0.46624,-2.04136c-0.31083,-0.52644 -0.71266,-0.78966 -1.2055,-0.78966l-0.33603,0c-0.24642,0 -0.53204,0.08121 -0.85687,0.24362c-0.32483,0.16241 -0.58805,0.41443 -0.78966,0.75606c-0.20162,0.34163 -0.30242,1.14809 -0.30242,2.4194l0,0.54604l0.0084,0.09241l0,0.26882l0.0168,0.26042c0.0056,0.0616 0.0084,0.12321 0.0084,0.18481c0,0.51524 0.13161,0.91427 0.39483,1.1971c0.26322,0.28282 0.65245,0.42423 1.16769,0.42423" data-paper-data="{&quot;elementType&quot;:&quot;letter&quot;,&quot;baseline&quot;:70.263671875,&quot;baselineProportion&quot;:1.0020891364902507,&quot;fontSize&quot;:100}"></path><path d="M142.55257,239.71757c-0.34163,0 -0.51244,-0.19042 -0.51244,-0.57125c0,-0.38083 0.23242,-0.68606 0.69726,-0.91567c0.63845,-0.31923 1.30491,-0.47884 1.99936,-0.47884l0.20162,0c1.73614,0 2.71622,0.74206 2.94024,2.22618c0.056,0.36963 0.08401,1.11029 0.08401,2.22198c0,1.11169 0.0182,1.78934 0.0546,2.03296c0.0364,0.24362 0.13441,0.48584 0.29402,0.72666c0.15961,0.24082 0.23942,0.42143 0.23942,0.54184c0,0.12041 -0.07421,0.23942 -0.22262,0.35703c-0.14841,0.11761 -0.34163,0.17641 -0.57965,0.17641c-0.23802,0 -0.52644,-0.06441 -0.86527,-0.19322c-0.33883,-0.12881 -0.56565,-0.19322 -0.68045,-0.19322c-0.11481,0 -0.31363,0.0532 -0.59645,0.15961c-0.28282,0.10641 -0.54884,0.20022 -0.79806,0.28142c-0.24922,0.08121 -0.56425,0.12181 -0.94508,0.12181c-0.69446,0 -1.2531,-0.19742 -1.67594,-0.59225c-0.42283,-0.39483 -0.63425,-0.89467 -0.63425,-1.49952l0,-0.19322c0,-1.2769 0.84847,-2.10297 2.54541,-2.4782c0.10641,-0.0224 0.38923,-0.07001 0.84847,-0.14281c0.45924,-0.07281 0.77846,-0.14561 0.95768,-0.21842c0.33043,-0.13441 0.49564,-0.42143 0.49564,-0.86107c0,-0.43964 -0.13721,-0.78266 -0.41163,-1.02908c-0.27442,-0.24642 -0.61185,-0.36963 -1.01228,-0.36963c-0.40043,0 -0.84987,0.14841 -1.34831,0.44524c-0.49844,0.29682 -0.85687,0.44524 -1.07529,0.44524z M144.40912,245.22001l0.27722,0c0.54324,0 1.01368,-0.22402 1.41131,-0.67205c0.25202,-0.28562 0.37803,-0.76726 0.37803,-1.44492l0.0084,-0.10921l0,-0.40323c-0.0112,-0.06721 -0.0168,-0.12041 -0.0168,-0.15961c0,-0.24642 -0.14001,-0.36963 -0.42003,-0.36963l-0.10921,-0.0168l-0.23522,0l-0.0588,0.0084l-0.29402,0.0168l-0.22682,0.0168c-0.60485,0 -1.09349,0.14421 -1.46592,0.43263c-0.37243,0.28842 -0.55865,0.66785 -0.55865,1.13829l0,0.24362c0.0112,0.07841 0.0168,0.13721 0.0168,0.17641c0,0.28002 0.12041,0.54044 0.36123,0.78126c0.24082,0.24082 0.55164,0.36123 0.93248,0.36123" data-paper-data="{&quot;elementType&quot;:&quot;letter&quot;,&quot;baseline&quot;:48.92578125,&quot;baselineProportion&quot;:0.9950347567030785,&quot;fontSize&quot;:100}"></path><path d="M154.06641,245.29562l0,0.10921c0,0.11761 -0.09241,0.26882 -0.27722,0.45364c-0.18481,0.18481 -0.45924,0.27722 -0.82327,0.27722l-0.29402,0c-0.39763,0 -0.70286,-0.07841 -0.91567,-0.23522c-0.21282,-0.15681 -0.31923,-0.36403 -0.31923,-0.62165c0,-0.07841 0.0154,-0.19462 0.0462,-0.34863c0.0308,-0.15401 0.0462,-0.41023 0.0462,-0.76866l0,-1.17609l0.06721,-2.80583c0,-0.10641 0,-0.21282 0,-0.31923l0.0084,-0.31083c0,-0.10641 0,-0.21282 0,-0.31923l0.0084,-0.15961c0,-0.10641 0,-0.21282 0,-0.31923l0.0084,-0.31083l0,-0.47884l0.0084,-0.31083l0,-0.89047c0,-0.73366 -0.049,-1.2629 -0.14701,-1.58773c-0.09801,-0.32483 -0.14701,-0.49564 -0.14701,-0.51244l0,-0.10921c0,-0.39763 0.30242,-0.59645 0.90727,-0.59645c0.60485,0 0.94648,0.18762 1.02488,0.56285c0.0056,0.028 0.0084,0.56845 0.0084,1.62133l-0.0336,1.09209l0,0.31083l-0.0504,2.04977l0,1.2433l0.042,1.04168c0,1.31051 0.17641,2.25698 0.52924,2.83943c0.20162,0.33043 0.30242,0.52364 0.30242,0.57965z" data-paper-data="{&quot;elementType&quot;:&quot;letter&quot;,&quot;baseline&quot;:70.99609375,&quot;baselineProportion&quot;:1.0027586206896553,&quot;fontSize&quot;:100}"></path><path d="M159.50655,245.29562l0,0.10921c0,0.11761 -0.09241,0.26882 -0.27722,0.45364c-0.18481,0.18481 -0.45924,0.27722 -0.82327,0.27722l-0.29402,0c-0.39763,0 -0.70286,-0.07841 -0.91567,-0.23522c-0.21282,-0.15681 -0.31923,-0.36403 -0.31923,-0.62165c0,-0.07841 0.0154,-0.19462 0.0462,-0.34863c0.0308,-0.15401 0.0462,-0.41023 0.0462,-0.76866l0,-1.17609l0.06721,-2.80583c0,-0.10641 0,-0.21282 0,-0.31923l0.0084,-0.31083c0,-0.10641 0,-0.21282 0,-0.31923l0.0084,-0.15961c0,-0.10641 0,-0.21282 0,-0.31923l0.0084,-0.31083l0,-0.47884l0.0084,-0.31083l0,-0.89047c0,-0.73366 -0.049,-1.2629 -0.14701,-1.58773c-0.09801,-0.32483 -0.14701,-0.49564 -0.14701,-0.51244l0,-0.10921c0,-0.39763 0.30242,-0.59645 0.90727,-0.59645c0.60485,0 0.94648,0.18762 1.02488,0.56285c0.0056,0.028 0.0084,0.56845 0.0084,1.62133l-0.0336,1.09209l0,0.31083l-0.0504,2.04977l0,1.2433l0.042,1.04168c0,1.31051 0.17641,2.25698 0.52924,2.83943c0.20162,0.33043 0.30242,0.52364 0.30242,0.57965z" data-paper-data="{&quot;elementType&quot;:&quot;letter&quot;,&quot;baseline&quot;:70.99609375,&quot;baselineProportion&quot;:1.0027586206896553,&quot;fontSize&quot;:100}"></path></g><g data-paper-data="{&quot;baselineProportion&quot;:0.7612565445026178,&quot;fontSize&quot;:100,&quot;baseline&quot;:70.99609375,&quot;elementType&quot;:&quot;word&quot;}"><path d="M169.18459,245.29562l0,0.10921c0,0.11761 -0.09241,0.26882 -0.27722,0.45364c-0.18481,0.18481 -0.45924,0.27722 -0.82327,0.27722l-0.29402,0c-0.39763,0 -0.70286,-0.07841 -0.91567,-0.23522c-0.21282,-0.15681 -0.31923,-0.36403 -0.31923,-0.62165c0,-0.07841 0.0154,-0.19462 0.0462,-0.34863c0.0308,-0.15401 0.0462,-0.41023 0.0462,-0.76866l0,-1.17609l0.06721,-2.80583c0,-0.10641 0,-0.21282 0,-0.31923l0.0084,-0.31083c0,-0.10641 0,-0.21282 0,-0.31923l0.0084,-0.15961c0,-0.10641 0,-0.21282 0,-0.31923l0.0084,-0.31083l0,-0.47884l0.0084,-0.31083l0,-0.89047c0,-0.73366 -0.049,-1.2629 -0.14701,-1.58773c-0.09801,-0.32483 -0.14701,-0.49564 -0.14701,-0.51244l0,-0.10921c0,-0.39763 0.30242,-0.59645 0.90727,-0.59645c0.60485,0 0.94648,0.18762 1.02488,0.56285c0.0056,0.028 0.0084,0.56845 0.0084,1.62133l-0.0336,1.09209l0,0.31083l-0.0504,2.04977l0,1.2433l0.042,1.04168c0,1.31051 0.17641,2.25698 0.52924,2.83943c0.20162,0.33043 0.30242,0.52364 0.30242,0.57965z" data-paper-data="{&quot;elementType&quot;:&quot;letter&quot;,&quot;baseline&quot;:70.99609375,&quot;baselineProportion&quot;:1.0027586206896553,&quot;fontSize&quot;:100}"></path><path d="M175.04477,246.2533l-0.18481,0c-1.10329,0 -1.98816,-0.37803 -2.65461,-1.13409c-0.27442,-0.31363 -0.49704,-0.72666 -0.66785,-1.2391c-0.17081,-0.51244 -0.25622,-1.03468 -0.25622,-1.56673l0,-0.18481c0,-0.0168 0,-0.0336 0,-0.0504c0,-0.62725 0.10921,-1.2013 0.32763,-1.72214c0.47044,-1.14809 1.2181,-1.90135 2.24298,-2.25978c0.43684,-0.15681 0.91287,-0.23522 1.42812,-0.23522c1.2433,0 2.10017,0.50684 2.57061,1.52052c0.16801,0.36403 0.25202,0.73366 0.25202,1.10889l0,0.17641c0,0.55444 -0.22402,0.92968 -0.67205,1.12569c-0.31363,0.14001 -0.99688,0.28702 -2.04977,0.44104c-1.05289,0.15401 -1.63533,0.24502 -1.74734,0.27302c-0.39763,0.10641 -0.59645,0.30522 -0.59645,0.59645c0,0.59365 0.27162,1.08929 0.81487,1.48692c0.36403,0.26882 0.87647,0.40323 1.53732,0.40323c0.29122,0 0.75046,-0.09101 1.37771,-0.27302c0.62725,-0.18201 0.96888,-0.27302 1.02488,-0.27302c0.15681,0 0.23522,0.15121 0.23522,0.45364c0,0.30242 -0.33603,0.60345 -1.00808,0.90307c-0.67205,0.29962 -1.33011,0.44944 -1.97416,0.44944z M176.6661,240.54084l0,-0.21002c0,-0.35283 -0.12461,-0.69026 -0.37383,-1.01228c-0.24922,-0.32203 -0.59505,-0.48304 -1.03748,-0.48304l-0.27722,0c-0.07841,0.0112 -0.13441,0.0168 -0.16801,0.0168c-0.48164,0 -0.90727,0.23802 -1.2769,0.71406c-0.36963,0.47604 -0.55444,0.96328 -0.55444,1.46172l0,0.0504c0,0.24642 0.21562,0.36963 0.64685,0.36963l0.0504,-0.0084l0.80647,-0.0588c0.27442,-0.0392 0.47604,-0.0588 0.60485,-0.0588l0.26882,-0.0336c0.42003,0 0.78126,-0.08401 1.08369,-0.25202c0.15121,-0.08401 0.22682,-0.24922 0.22682,-0.49564" data-paper-data="{&quot;elementType&quot;:&quot;letter&quot;,&quot;baseline&quot;:48.291015625,&quot;baselineProportion&quot;:0.98998998998999,&quot;fontSize&quot;:100}"></path><path d="M181.40059,239.71757c-0.34163,0 -0.51244,-0.19042 -0.51244,-0.57125c0,-0.38083 0.23242,-0.68606 0.69726,-0.91567c0.63845,-0.31923 1.30491,-0.47884 1.99936,-0.47884l0.20162,0c1.73614,0 2.71622,0.74206 2.94024,2.22618c0.056,0.36963 0.08401,1.11029 0.08401,2.22198c0,1.11169 0.0182,1.78934 0.0546,2.03296c0.0364,0.24362 0.13441,0.48584 0.29402,0.72666c0.15961,0.24082 0.23942,0.42143 0.23942,0.54184c0,0.12041 -0.07421,0.23942 -0.22262,0.35703c-0.14841,0.11761 -0.34163,0.17641 -0.57965,0.17641c-0.23802,0 -0.52644,-0.06441 -0.86527,-0.19322c-0.33883,-0.12881 -0.56565,-0.19322 -0.68045,-0.19322c-0.11481,0 -0.31363,0.0532 -0.59645,0.15961c-0.28282,0.10641 -0.54884,0.20022 -0.79806,0.28142c-0.24922,0.08121 -0.56425,0.12181 -0.94508,0.12181c-0.69446,0 -1.2531,-0.19742 -1.67594,-0.59225c-0.42283,-0.39483 -0.63425,-0.89467 -0.63425,-1.49952l0,-0.19322c0,-1.2769 0.84847,-2.10297 2.54541,-2.4782c0.10641,-0.0224 0.38923,-0.07001 0.84847,-0.14281c0.45924,-0.07281 0.77846,-0.14561 0.95768,-0.21842c0.33043,-0.13441 0.49564,-0.42143 0.49564,-0.86107c0,-0.43964 -0.13721,-0.78266 -0.41163,-1.02908c-0.27442,-0.24642 -0.61185,-0.36963 -1.01228,-0.36963c-0.40043,0 -0.84987,0.14841 -1.34831,0.44524c-0.49844,0.29682 -0.85687,0.44524 -1.07529,0.44524z M183.25714,245.22001l0.27722,0c0.54324,0 1.01368,-0.22402 1.41131,-0.67205c0.25202,-0.28562 0.37803,-0.76726 0.37803,-1.44492l0.0084,-0.10921l0,-0.40323c-0.0112,-0.06721 -0.0168,-0.12041 -0.0168,-0.15961c0,-0.24642 -0.14001,-0.36963 -0.42003,-0.36963l-0.10921,-0.0168l-0.23522,0l-0.0588,0.0084l-0.29402,0.0168l-0.22682,0.0168c-0.60485,0 -1.09349,0.14421 -1.46592,0.43263c-0.37243,0.28842 -0.55865,0.66785 -0.55865,1.13829l0,0.24362c0.0112,0.07841 0.0168,0.13721 0.0168,0.17641c0,0.28002 0.12041,0.54044 0.36123,0.78126c0.24082,0.24082 0.55164,0.36123 0.93248,0.36123" data-paper-data="{&quot;elementType&quot;:&quot;letter&quot;,&quot;baseline&quot;:48.92578125,&quot;baselineProportion&quot;:0.9950347567030785,&quot;fontSize&quot;:100}"></path><path d="M190.06659,241.98575l0,-0.23522c0,-0.52644 0.09521,-1.04168 0.28562,-1.54572c0.36963,-0.95768 0.97168,-1.59053 1.80615,-1.89855c0.48164,-0.17361 0.94788,-0.26042 1.39871,-0.26042c0.45084,0 0.88907,0.08401 1.31471,0.25202c0.42563,0.16801 0.74766,0.25202 0.96608,0.25202c0.21842,0 0.41163,0.09381 0.57965,0.28142c0.16801,0.18762 0.25202,0.44664 0.25202,0.77706l0,0.42843c0,0.50404 -0.0476,1.2615 -0.14281,2.27238c-0.09521,1.01088 -0.14281,1.67594 -0.14281,1.99516c0,0.31923 0.0056,0.57405 0.0168,0.76446l0.0504,0.63005c0.0168,0.28562 0.0252,0.65805 0.0252,1.11729c0,0.45924 -0.09241,0.89607 -0.27722,1.31051c-0.55444,1.2489 -1.59613,1.87335 -3.12505,1.87335l-0.22682,0c-0.52084,0 -1.00668,-0.10221 -1.45752,-0.30662c-0.45084,-0.20442 -0.67625,-0.42983 -0.67625,-0.67625c0,-0.29682 0.20442,-0.44524 0.61325,-0.44524l1.57093,0.12601c0.65525,0 1.2027,-0.21282 1.64233,-0.63845c0.43964,-0.42563 0.65945,-0.93808 0.65945,-1.53732c0,-0.38083 -0.18201,-0.57125 -0.54604,-0.57125l-0.69726,0.042c-1.2041,0 -2.08057,-0.25762 -2.62941,-0.77286c-0.39203,-0.36963 -0.70006,-0.86387 -0.92407,-1.48272c-0.22402,-0.61885 -0.33603,-1.2027 -0.33603,-1.75154z M192.96482,244.9932l0.28562,0c1.15369,0 1.73054,-0.88487 1.73054,-2.65461c0.0112,-0.11201 0.0168,-0.20162 0.0168,-0.26882l0.0168,-0.45364l0,-0.44524c0,-0.79526 -0.10361,-1.34131 -0.31083,-1.63813c-0.20722,-0.29682 -0.53484,-0.44524 -0.98288,-0.44524l-0.14281,0l-0.08401,0.0084c-0.63845,0 -1.15649,0.27162 -1.55413,0.81487c-0.39763,0.54324 -0.59645,1.2349 -0.59645,2.07497l0,0.27722l0.0336,0.52924c0,0.63285 0.15261,1.15789 0.45784,1.57513c0.30522,0.41723 0.68186,0.62585 1.12989,0.62585" data-paper-data="{&quot;elementType&quot;:&quot;letter&quot;,&quot;baseline&quot;:47.216796875,&quot;baselineProportion&quot;:0.6795502459592411,&quot;fontSize&quot;:100}"></path><path d="M201.54682,238.75149c0.0504,0.22962 0.07561,1.10189 0.07561,2.61681c0,1.51492 0.07001,2.4418 0.21002,2.78062c0.14001,0.33883 0.32903,0.57125 0.56705,0.69726c0.23802,0.12601 0.52364,0.18902 0.85687,0.18902c0.33323,0 0.66505,-0.12181 0.99548,-0.36543c0.33043,-0.24362 0.56285,-0.53344 0.69726,-0.86947c0.27442,-0.67765 0.41163,-1.94336 0.41163,-3.79711c0,-0.20722 -0.0224,-0.44384 -0.06721,-0.70986c-0.0448,-0.26602 -0.06721,-0.45784 -0.06721,-0.57545c0,-0.11761 0.0588,-0.23242 0.17641,-0.34443c0.11761,-0.11201 0.35283,-0.16801 0.70566,-0.16801c0.35283,0 0.58525,0.10921 0.69726,0.32763c0.07281,0.14001 0.10921,0.47604 0.10921,1.00808l0.0084,0.21842c0.0056,0.15121 0.0084,0.31643 0.0084,0.49564l0,0.59645c0,0.48164 0.0196,1.05008 0.0588,1.70534l0.0168,0.21002c0.0112,0.14001 0.0252,0.43824 0.042,0.89467c0.0168,0.45644 0.0602,0.80647 0.13021,1.05008c0.07001,0.24362 0.10501,0.42563 0.10501,0.54604c0,0.12041 -0.07141,0.24502 -0.21422,0.37383c-0.14281,0.12881 -0.36263,0.19322 -0.65945,0.19322c-0.29682,0 -0.59225,-0.06441 -0.88627,-0.19322c-0.29402,-0.12881 -0.49144,-0.19322 -0.59225,-0.19322c-0.10081,0 -0.23802,0.0336 -0.41163,0.10081l-0.17641,0.07561c-0.63845,0.27442 -1.17609,0.41163 -1.61293,0.41163l-0.21002,0c-0.95768,0 -1.64653,-0.38083 -2.06657,-1.14249c-0.30242,-0.54324 -0.45364,-1.81175 -0.45364,-3.80551c0,-1.04168 -0.0476,-1.71514 -0.14281,-2.02036c-0.09521,-0.30522 -0.14281,-0.49704 -0.14281,-0.57545c0,-0.30802 0.27722,-0.46204 0.83167,-0.46204l0.18481,0c0.43684,0 0.70846,0.24362 0.81487,0.73086z" data-paper-data="{&quot;elementType&quot;:&quot;letter&quot;,&quot;baseline&quot;:47.36328125,&quot;baselineProportion&quot;:1.0178384050367262,&quot;fontSize&quot;:100}"></path><path d="M213.29588,246.2533l-0.18481,0c-1.10329,0 -1.98816,-0.37803 -2.65461,-1.13409c-0.27442,-0.31363 -0.49704,-0.72666 -0.66785,-1.2391c-0.17081,-0.51244 -0.25622,-1.03468 -0.25622,-1.56673l0,-0.18481c0,-0.0168 0,-0.0336 0,-0.0504c0,-0.62725 0.10921,-1.2013 0.32763,-1.72214c0.47044,-1.14809 1.2181,-1.90135 2.24298,-2.25978c0.43684,-0.15681 0.91287,-0.23522 1.42812,-0.23522c1.2433,0 2.10017,0.50684 2.57061,1.52052c0.16801,0.36403 0.25202,0.73366 0.25202,1.10889l0,0.17641c0,0.55444 -0.22402,0.92968 -0.67205,1.12569c-0.31363,0.14001 -0.99688,0.28702 -2.04977,0.44104c-1.05289,0.15401 -1.63533,0.24502 -1.74734,0.27302c-0.39763,0.10641 -0.59645,0.30522 -0.59645,0.59645c0,0.59365 0.27162,1.08929 0.81487,1.48692c0.36403,0.26882 0.87647,0.40323 1.53732,0.40323c0.29122,0 0.75046,-0.09101 1.37771,-0.27302c0.62725,-0.18201 0.96888,-0.27302 1.02488,-0.27302c0.15681,0 0.23522,0.15121 0.23522,0.45364c0,0.30242 -0.33603,0.60345 -1.00808,0.90307c-0.67205,0.29962 -1.33011,0.44944 -1.97416,0.44944z M214.91721,240.54084l0,-0.21002c0,-0.35283 -0.12461,-0.69026 -0.37383,-1.01228c-0.24922,-0.32203 -0.59505,-0.48304 -1.03748,-0.48304l-0.27722,0c-0.07841,0.0112 -0.13441,0.0168 -0.16801,0.0168c-0.48164,0 -0.90727,0.23802 -1.2769,0.71406c-0.36963,0.47604 -0.55444,0.96328 -0.55444,1.46172l0,0.0504c0,0.24642 0.21562,0.36963 0.64685,0.36963l0.0504,-0.0084l0.80647,-0.0588c0.27442,-0.0392 0.47604,-0.0588 0.60485,-0.0588l0.26882,-0.0336c0.42003,0 0.78126,-0.08401 1.08369,-0.25202c0.15121,-0.08401 0.22682,-0.24922 0.22682,-0.49564" data-paper-data="{&quot;elementType&quot;:&quot;letter&quot;,&quot;baseline&quot;:48.291015625,&quot;baselineProportion&quot;:0.98998998998999,&quot;fontSize&quot;:100}"></path></g></g></g></g><g data-paper-data="{&quot;elementType&quot;:&quot;emblem&quot;}" fill="#1f3f38" stroke="none" stroke-width="1" stroke-miterlimit="4" font-family="'Helvetica Neue', Helvetica, Arial, sans-serif" font-weight="bold" font-size="24"><g><path d="M159.91437,136.50057l-4.35344,-12.07322l-2.75624,3.26444l-16.94505,-14.30343c1.87995,-3.44531 2.81356,-7.4574 2.4582,-11.66054c-0.96418,-11.41218 -10.99696,-19.88215 -22.40913,-18.9167c-11.41218,0.96418 -19.88215,10.99696 -18.9167,22.40913c0.96418,11.41218 10.99696,19.88215 22.40913,18.9167c5.66151,-0.4789 10.59575,-3.19312 14.01685,-7.19757l16.62153,14.03086l-2.75624,3.26572z M121.93958,94.30991c1.85957,0 3.36634,1.50804 3.36634,3.36634c0,1.85957 -1.50804,3.36761 -3.36634,3.36761c-1.85957,0 -3.36634,-1.50676 -3.36634,-3.36761c0,-1.85957 1.50676,-3.36634 3.36634,-3.36634z M112.33221,94.30991c1.85957,0 3.36634,1.50804 3.36634,3.36634c0,1.85957 -1.50676,3.36761 -3.36634,3.36761c-1.85957,0 -3.36634,-1.50676 -3.36634,-3.36761c0,-1.85957 1.50676,-3.36634 3.36634,-3.36634z M117.73007,116.52799c-6.57474,0 -11.90382,-5.53542 -11.90382,-11.90382l23.80764,0c0,6.3684 -5.33035,11.90382 -11.90382,11.90382z"></path><path d="M188.63332,127.5224l5.33927,-9.3157l3.65546,2.21366l0.26747,-12.83233l-11.2466,6.18245l3.65546,2.21366l-5.67043,9.86211c-2.44037,-0.73873 -5.05269,-1.05333 -7.7478,-0.82662c-11.41218,0.96418 -19.88215,10.99696 -18.9167,22.40913c0.96418,11.41218 10.99696,19.88215 22.40913,18.9167c11.41218,-0.96418 19.88215,-10.99696 18.9167,-22.40913c-0.60627,-7.17209 -4.79923,-13.17877 -10.66198,-16.41392z M183.44944,135.14028c1.85957,0 3.36634,1.50676 3.36634,3.36634c0,1.85957 -1.50804,3.36761 -3.36634,3.36761c-1.85957,0 -3.36634,-1.50676 -3.36634,-3.36761c0,-1.85957 1.50804,-3.36634 3.36634,-3.36634z M173.84206,135.14028c1.85957,0 3.36634,1.50676 3.36634,3.36634c0,1.85957 -1.50676,3.36761 -3.36634,3.36761c-1.85957,0 -3.36634,-1.50676 -3.36634,-3.36761c0,-1.85957 1.50676,-3.36634 3.36634,-3.36634z M179.23865,158.46137c-7.35168,0 -13.33416,-5.9812 -13.33416,-13.33416c0,-0.78968 0.63939,-1.43034 1.43034,-1.43034c0.79096,0 1.43034,0.64066 1.43034,1.43034c0,5.77487 4.69861,10.47347 10.47347,10.47347c5.77614,0 10.47475,-4.69861 10.47475,-10.47347c0,-0.78968 0.63939,-1.43034 1.43034,-1.43034c0.79096,0 1.43034,0.64066 1.43034,1.43034c0,7.35296 -5.98248,13.33416 -13.33543,13.33416z"></path><path d="M147.14827,90.98433l18.08754,-8.55149c3.43639,5.01575 8.99218,8.38591 15.26633,8.94124l0.3095,7.44594l-3.5472,0.27002l7.24469,10.59447l5.55452,-11.57011l-4.97372,0.37956l-0.28913,-7.18865c11.04663,-1.31444 19.15233,-11.14216 18.20726,-22.31361c-0.96418,-11.41218 -10.99696,-19.88215 -22.40913,-18.9167c-11.41218,0.96418 -19.88215,10.99696 -18.9167,22.40913c0.18468,2.18309 0.70562,4.25537 1.49912,6.17735l-17.95635,8.48781l-1.93472,-3.85925l-7.05874,10.7193l12.81195,0.75529z M186.6935,59.84921c1.85957,0 3.36761,1.50676 3.36761,3.36634c0,1.85957 -1.50804,3.36761 -3.36761,3.36761c-1.85957,0 -3.36634,-1.50676 -3.36634,-3.36761c-0.00127,-1.8583 1.50676,-3.36634 3.36634,-3.36634z M177.08613,59.84921c1.85957,0 3.36634,1.50676 3.36634,3.36634c0,1.85957 -1.50676,3.36761 -3.36634,3.36761c-1.85957,0 -3.36634,-1.50676 -3.36634,-3.36761c-0.00127,-1.8583 1.50676,-3.36634 3.36634,-3.36634z M170.57889,68.40579c0.79096,0 1.43034,0.64066 1.43034,1.43034c0,5.77487 4.69861,10.47347 10.47347,10.47347c5.77614,0 10.47475,-4.69861 10.47475,-10.47347c0,-0.78968 0.63939,-1.43034 1.43034,-1.43034c0.79096,0 1.43034,0.64066 1.43034,1.43034c0,7.35296 -5.9812,13.33416 -13.33543,13.33416c-7.35168,0 -13.33416,-5.9812 -13.33416,-13.33416c0,-0.78968 0.63939,-1.43034 1.43034,-1.43034z"></path></g></g></g></svg>